<svg width="1886" height="200" viewBox="0 0 1886 200" fill="none" xmlns="http://www.w3.org/2000/svg">
<path d="M123.061 137.172C122.02 157.507 116.296 173.061 105.889 183.837C95.5694 194.612 80.9565 200 62.0507 200C43.0583 200 27.9683 192.787 16.781 178.362C5.59367 163.85 0 144.211 0 119.445V85.0334C0 60.3543 5.72375 40.8456 17.1713 26.5074C28.7055 12.1691 44.4025 5 64.2622 5C82.5608 5 96.6968 10.5181 106.67 21.5541C116.73 32.5033 122.194 48.1885 123.061 68.6096H98.9949C97.9543 53.1417 94.7021 42.1056 89.2385 35.5013C83.775 28.8971 75.4495 25.5949 64.2622 25.5949C51.3404 25.5949 41.4105 30.6785 34.4726 40.8456C27.5347 50.9258 24.0658 65.742 24.0658 85.2941V120.097C24.0658 139.301 27.2746 154.031 33.6921 164.285C40.1964 174.539 49.6492 179.666 62.0507 179.666C74.4522 179.666 83.3847 176.581 88.8483 170.411C94.3119 164.241 97.6941 153.162 98.9949 137.172H123.061Z" fill="#26330C"/>
<path d="M198.037 176.928H272.315V197.393H174.101V7.60695H198.037V176.928Z" fill="#26330C"/>
<path d="M344.299 197.393H320.494V7.60695H344.299V197.393Z" fill="#26330C"/>
<path d="M439.324 7.60695L488.756 162.46L538.189 7.60695H568.889V197.393H545.083V123.486L547.295 49.4485L497.732 197.393H479.52L430.218 49.9699L432.429 123.486V197.393H408.624V7.60695H439.324Z" fill="#26330C"/>
<path d="M853.504 28.2019H803.681V197.393H779.876V28.2019H730.183V7.60695H853.504V28.2019Z" fill="#26330C"/>
<path d="M988.921 109.669H921.927V176.928H999.978V197.393H898.121V7.60695H998.677V28.2019H921.927V89.2045H988.921V109.669Z" fill="#26330C"/>
<path d="M1147.18 197.393V7.60691H1192.32C1214.44 7.60691 1231.61 14.5588 1243.84 28.4626C1256.06 42.2794 1262.18 61.7446 1262.18 86.8583V118.663C1262.18 143.777 1255.98 163.199 1243.58 176.928C1231.17 190.572 1213.18 197.393 1189.59 197.393H1147.18ZM1170.99 28.2019V176.928H1190.11C1206.85 176.928 1219.08 172.149 1226.79 162.59C1234.51 152.944 1238.46 138.693 1238.63 119.836V86.2066C1238.63 66.2199 1234.77 51.5775 1227.05 42.2794C1219.42 32.8944 1207.85 28.2019 1192.32 28.2019H1170.99Z" fill="#26330C"/>
<path d="M1375.27 120.618H1341.97V197.393H1318.03V7.60691H1371.11C1389.66 7.60691 1403.71 12.4733 1413.25 22.2059C1422.79 31.8516 1427.56 46.016 1427.56 64.6992C1427.56 76.4305 1424.96 86.6845 1419.76 95.4612C1414.64 104.151 1407.36 110.712 1397.9 115.144L1434.59 195.829V197.393H1408.96L1375.27 120.618ZM1341.97 100.154H1370.85C1380.82 100.154 1388.75 96.9385 1394.65 90.508C1400.64 84.0775 1403.63 75.4746 1403.63 64.6992C1403.63 40.3676 1392.61 28.2019 1370.59 28.2019H1341.97V100.154Z" fill="#26330C"/>
<path d="M1713.85 113.58H1649.85V197.393H1626.04V7.60691H1724.65V28.2019H1649.85V93.115H1713.85V113.58Z" fill="#26330C"/>
<path d="M1886 28.2019H1836.18V197.393H1812.37V28.2019H1762.68V7.60691H1886V28.2019Z" fill="#26330C"/>
<path fill-rule="evenodd" clip-rule="evenodd" d="M614 197L730 197L672 1.97209e-05L614 197ZM644.142 174.148L699.858 174.148L672 79.5273L644.142 174.148Z" fill="#26330C"/>
<path fill-rule="evenodd" clip-rule="evenodd" d="M675.037 59.9365L711.037 182.813L695.475 187.547L659.476 64.6702L675.037 59.9365Z" fill="#26330C"/>
<path fill-rule="evenodd" clip-rule="evenodd" d="M1469 198L1586 198L1527.5 -2.85139e-05L1469 198ZM1499.4 175.032L1555.6 175.032L1527.5 79.931L1499.4 175.032Z" fill="#26330C"/>
<path fill-rule="evenodd" clip-rule="evenodd" d="M1530.56 60.2409L1566.87 183.741L1551.18 188.499L1514.87 64.9986L1530.56 60.2409Z" fill="#26330C"/>
</svg>
