<svg width="412" height="197" viewBox="0 0 412 197" fill="none" xmlns="http://www.w3.org/2000/svg">
<path d="M50.4304 56.08C50.0081 64.3306 47.6858 70.642 43.4633 75.0141C39.2761 79.3863 33.3471 81.5723 25.6763 81.5723C17.9703 81.5723 11.8478 78.6458 7.30869 72.7928C2.76956 66.9045 0.5 58.936 0.5 48.8871V34.9245C0.5 24.9109 2.82234 16.9953 7.46703 11.1775C12.1469 5.35977 18.5157 2.4509 26.5736 2.4509C33.998 2.4509 39.7335 4.68985 43.78 9.16776C47.8617 13.6104 50.0785 19.9747 50.4304 28.2606H40.666C40.2437 21.9844 38.9242 17.5065 36.7074 14.8268C34.4906 12.1472 31.1127 10.8073 26.5736 10.8073C21.3307 10.8073 17.3018 12.87 14.4868 16.9953C11.6719 21.0853 10.2644 27.097 10.2644 35.0303V49.1516C10.2644 56.9438 11.5663 62.9203 14.1702 67.0808C16.8092 71.2414 20.6446 73.3217 25.6763 73.3217C30.708 73.3217 34.3323 72.07 36.5491 69.5666C38.7659 67.0632 40.1382 62.5677 40.666 56.08H50.4304Z" fill="white"/>
<path d="M80.8509 72.211H110.989V80.5146H71.1393V3.50867H80.8509V72.211Z" fill="white"/>
<path d="M140.195 80.5146H130.536V3.50867H140.195V80.5146Z" fill="white"/>
<path d="M178.75 3.50867L198.807 66.3404L218.863 3.50867H231.32V80.5146H221.661V50.5267L222.558 20.4859L202.449 80.5146H195.059L175.056 20.6975L175.953 50.5267V80.5146H166.294V3.50867H178.75Z" fill="white"/>
<path d="M346.799 11.8651H326.584V80.5146H316.925V11.8651H296.763V3.50867H346.799V11.8651Z" fill="white"/>
<path d="M401.742 44.9205H374.56V72.211H406.229V80.5146H364.902V3.50867H405.701V11.8651H374.56V36.617H401.742V44.9205Z" fill="white"/>
<path d="M60.7499 196.795V119.789H79.0647C88.0374 119.789 95.0044 122.61 99.9658 128.251C104.927 133.857 107.408 141.755 107.408 151.945V164.85C107.408 175.04 104.892 182.92 99.8602 188.491C94.8285 194.027 87.5272 196.795 77.9563 196.795H60.7499ZM70.4087 128.145V188.491H78.1674C84.9585 188.491 89.9199 186.552 93.0515 182.674C96.1832 178.76 97.7842 172.977 97.8546 165.326V151.681C97.8546 143.571 96.2887 137.63 93.1571 133.857C90.0606 130.049 85.3632 128.145 79.0647 128.145H70.4087Z" fill="white"/>
<path d="M153.293 165.644H139.781V196.795H130.07V119.789H151.604C159.134 119.789 164.834 121.764 168.705 125.713C172.576 129.626 174.511 135.374 174.511 142.954C174.511 147.714 173.455 151.875 171.344 155.436C169.268 158.962 166.312 161.624 162.477 163.422L177.361 196.16V196.795H166.963L153.293 165.644ZM139.781 157.34H151.499C155.545 157.34 158.765 156.035 161.157 153.426C163.585 150.817 164.799 147.326 164.799 142.954C164.799 133.082 160.331 128.145 151.393 128.145H139.781V157.34Z" fill="white"/>
<path d="M290.263 162.788H264.295V196.795H254.636V119.789H294.643V128.145H264.295V154.484H290.263V162.788Z" fill="white"/>
<path d="M360.11 128.145H339.895V196.795H330.236V128.145H310.074V119.789H360.11V128.145Z" fill="white"/>
<path fill-rule="evenodd" clip-rule="evenodd" d="M192.004 196.795L239.414 196.795L215.709 116.461L192.004 196.795ZM204.323 187.476L227.095 187.476L215.709 148.891L204.323 187.476Z" fill="white"/>
<path fill-rule="evenodd" clip-rule="evenodd" d="M216.951 140.902L231.664 191.01L225.304 192.94L210.59 142.832L216.951 140.902Z" fill="white"/>
<path fill-rule="evenodd" clip-rule="evenodd" d="M249.617 80.5762L296.682 80.5762L273.15 0.827969L249.617 80.5762ZM261.847 71.3254L284.452 71.3254L273.15 33.0217L261.847 71.3254Z" fill="white"/>
<path fill-rule="evenodd" clip-rule="evenodd" d="M274.382 25.0911L288.988 74.8332L282.674 76.7494L268.068 27.0074L274.382 25.0911Z" fill="white"/>
</svg>
