<svg width="412" height="197" viewBox="0 0 412 197" fill="none" xmlns="http://www.w3.org/2000/svg">
<path d="M50.425 56.08C50.0027 64.3306 47.6804 70.642 43.458 75.0141C39.2707 79.3863 33.3417 81.5723 25.6709 81.5723C17.965 81.5723 11.8424 78.6458 7.30331 72.7928C2.76419 66.9045 0.494629 58.936 0.494629 48.8871V34.9245C0.494629 24.9109 2.81697 16.9953 7.46166 11.1775C12.1415 5.35977 18.5104 2.4509 26.5682 2.4509C33.9927 2.4509 39.7281 4.68985 43.7746 9.16776C47.8563 13.6104 50.0731 19.9747 50.425 28.2606H40.6606C40.2383 21.9844 38.9188 17.5065 36.7021 14.8268C34.4853 12.1472 31.1073 10.8073 26.5682 10.8073C21.3253 10.8073 17.2964 12.87 14.4815 16.9953C11.6665 21.0853 10.259 27.097 10.259 35.0303V49.1516C10.259 56.9438 11.5609 62.9203 14.1648 67.0808C16.8038 71.2414 20.6392 73.3217 25.6709 73.3217C30.7027 73.3217 34.3269 72.07 36.5437 69.5666C38.7605 67.0632 40.1328 62.5677 40.6606 56.08H50.425Z" fill="black"/>
<path d="M80.8456 72.211H110.983V80.5146H71.1339V3.50867H80.8456V72.211Z" fill="black"/>
<path d="M140.19 80.5146H130.531V3.50867H140.19V80.5146Z" fill="black"/>
<path d="M178.745 3.50867L198.801 66.3404L218.858 3.50867H231.314V80.5146H221.655V50.5267L222.553 20.4859L202.443 80.5146H195.054L175.05 20.6975L175.947 50.5267V80.5146H166.289V3.50867H178.745Z" fill="black"/>
<path d="M346.793 11.8651H326.578V80.5146H316.919V11.8651H296.757V3.50867H346.793V11.8651Z" fill="black"/>
<path d="M401.737 44.9205H374.555V72.211H406.223V80.5146H364.896V3.50867H405.696V11.8651H374.555V36.617H401.737V44.9205Z" fill="black"/>
<path d="M60.7445 196.795V119.789H79.0593C88.032 119.789 94.9991 122.61 99.9604 128.251C104.922 133.857 107.402 141.755 107.402 151.945V164.85C107.402 175.04 104.887 182.92 99.8549 188.491C94.8231 194.027 87.5218 196.795 77.9509 196.795H60.7445ZM70.4033 128.145V188.491H78.1621C84.9532 188.491 89.9145 186.552 93.0462 182.674C96.1778 178.76 97.7788 172.977 97.8492 165.326V151.681C97.8492 143.571 96.2834 137.63 93.1517 133.857C90.0553 130.049 85.3578 128.145 79.0593 128.145H70.4033Z" fill="black"/>
<path d="M153.288 165.644H139.776V196.795H130.064V119.789H151.599C159.129 119.789 164.829 121.764 168.7 125.713C172.57 129.626 174.505 135.374 174.505 142.954C174.505 147.714 173.45 151.875 171.339 155.436C169.263 158.962 166.307 161.624 162.472 163.422L177.356 196.16V196.795H166.958L153.288 165.644ZM139.776 157.34H151.493C155.54 157.34 158.759 156.035 161.152 153.426C163.58 150.817 164.794 147.326 164.794 142.954C164.794 133.082 160.325 128.145 151.388 128.145H139.776V157.34Z" fill="black"/>
<path d="M290.257 162.788H264.289V196.795H254.63V119.789H294.638V128.145H264.289V154.484H290.257V162.788Z" fill="black"/>
<path d="M360.105 128.145H339.89V196.795H330.231V128.145H310.069V119.789H360.105V128.145Z" fill="black"/>
<path fill-rule="evenodd" clip-rule="evenodd" d="M191.999 196.795L239.409 196.795L215.704 116.461L191.999 196.795ZM204.318 187.476L227.09 187.476L215.704 148.891L204.318 187.476Z" fill="black"/>
<path fill-rule="evenodd" clip-rule="evenodd" d="M216.945 140.902L231.658 191.01L225.298 192.94L210.585 142.832L216.945 140.902Z" fill="black"/>
<path fill-rule="evenodd" clip-rule="evenodd" d="M249.612 80.5762L296.677 80.5762L273.144 0.827969L249.612 80.5762ZM261.842 71.3254L284.447 71.3254L273.144 33.0217L261.842 71.3254Z" fill="black"/>
<path fill-rule="evenodd" clip-rule="evenodd" d="M274.377 25.0911L288.983 74.8332L282.669 76.7494L268.063 27.0074L274.377 25.0911Z" fill="black"/>
</svg>
