<svg width="201" height="96" viewBox="0 0 201 96" fill="none" xmlns="http://www.w3.org/2000/svg">
<path d="M24.8823 27.5068C24.6772 31.5153 23.5489 34.5816 21.4975 36.7057C19.4631 38.8299 16.5826 39.892 12.8558 39.892C9.11199 39.892 6.13742 38.4701 3.93213 35.6265C1.72685 32.7658 0.624207 28.8943 0.624207 24.0122V17.2286C0.624207 12.3636 1.75249 8.51789 4.00906 5.6914C6.28273 2.86491 9.37697 1.45166 13.2918 1.45166C16.8989 1.45166 19.6854 2.53943 21.6513 4.71497C23.6344 6.87339 24.7114 9.9654 24.8823 13.991H20.1384C19.9333 10.9418 19.2922 8.76628 18.2152 7.46438C17.1382 6.16248 15.4971 5.51153 13.2918 5.51153C10.7446 5.51153 8.78718 6.51365 7.41956 8.51789C6.05194 10.505 5.36813 13.4257 5.36813 17.28V24.1407C5.36813 27.9265 6.00066 30.8301 7.2657 32.8514C8.54785 34.8728 10.4112 35.8835 12.8558 35.8835C15.3005 35.8835 17.0613 35.2754 18.1383 34.0591C19.2153 32.8429 19.882 30.6588 20.1384 27.5068H24.8823Z" fill="#C0FF3A"/>
<path d="M39.6618 35.3439H54.3039V39.3781H34.9436V1.96557H39.6618V35.3439Z" fill="#C0FF3A"/>
<path d="M68.4936 39.3781H63.801V1.96557H68.4936V39.3781Z" fill="#C0FF3A"/>
<path d="M87.2252 1.96557L96.9694 32.4917L106.714 1.96557H112.765V39.3781H108.073V24.8088L108.509 10.2138L98.7388 39.3781H95.1488L85.4302 10.3166L85.8661 24.8088V39.3781H81.1734V1.96557H87.2252Z" fill="#C0FF3A"/>
<path d="M168.87 6.02544H159.048V39.3781H154.356V6.02544H144.56V1.96557H168.87V6.02544Z" fill="#C0FF3A"/>
<path d="M195.564 22.0851H182.357V35.3439H197.743V39.3781H177.665V1.96557H197.487V6.02544H182.357V18.0509H195.564V22.0851Z" fill="#C0FF3A"/>
<path d="M29.896 95.8716V58.4591H38.794C43.1533 58.4591 46.5382 59.8296 48.9486 62.5704C51.359 65.2941 52.5642 69.1313 52.5642 74.0819V80.3516C52.5642 85.3023 51.3419 89.1309 48.8973 91.8375C46.4527 94.5269 42.9054 95.8716 38.2555 95.8716H29.896ZM34.5886 62.519V91.8375H38.3581C41.6575 91.8375 44.0679 90.8953 45.5894 89.011C47.1109 87.1095 47.8887 84.3001 47.9229 80.5829V73.9535C47.9229 70.0135 47.1621 67.1271 45.6407 65.2941C44.1363 63.4441 41.8541 62.519 38.794 62.519H34.5886Z" fill="#C0FF3A"/>
<path d="M74.8571 80.737H68.2925V95.8716H63.5743V58.4591H74.0365C77.6949 58.4591 80.4643 59.4184 82.3448 61.337C84.2253 63.2385 85.1655 66.0307 85.1655 69.7137C85.1655 72.0263 84.6527 74.0477 83.627 75.7778C82.6183 77.4909 81.1823 78.7842 79.319 79.6578L86.5502 95.5633V95.8716H81.4986L74.8571 80.737ZM68.2925 76.7029H73.9852C75.9512 76.7029 77.5154 76.0691 78.6779 74.8014C79.8575 73.5338 80.4472 71.8379 80.4472 69.7137C80.4472 64.9173 78.2761 62.519 73.934 62.519H68.2925V76.7029Z" fill="#C0FF3A"/>
<path d="M141.599 79.3495H128.983V95.8716H124.29V58.4591H143.728V62.519H128.983V75.3153H141.599V79.3495Z" fill="#C0FF3A"/>
<path d="M175.534 62.519H165.713V95.8716H161.02V62.519H151.225V58.4591H175.534V62.519Z" fill="#C0FF3A"/>
<path fill-rule="evenodd" clip-rule="evenodd" d="M93.6644 95.8716L116.698 95.8716L105.181 56.842L93.6644 95.8716ZM99.6496 91.3442L110.713 91.3442L105.181 72.5979L99.6496 91.3442Z" fill="#C0FF3A"/>
<path fill-rule="evenodd" clip-rule="evenodd" d="M105.784 68.7167L112.933 93.061L109.843 93.9988L102.694 69.6546L105.784 68.7167Z" fill="#C0FF3A"/>
<path fill-rule="evenodd" clip-rule="evenodd" d="M121.655 39.408L144.521 39.408L133.088 0.663127L121.655 39.408ZM127.597 34.9136L138.579 34.9136L133.088 16.3041L127.597 34.9136Z" fill="#C0FF3A"/>
<path fill-rule="evenodd" clip-rule="evenodd" d="M133.687 12.451L140.783 36.6176L137.716 37.5486L130.619 13.382L133.687 12.451Z" fill="#C0FF3A"/>
</svg>
